<svg  viewBox="0 0 512 512" fill="none" xmlns="http://www.w3.org/2000/svg">
<g clip-path="url(#clip0_1_40)">
<path d="M191.01 141.325V260.366L124.531 438.165C118.255 454.95 120.606 473.761 130.82 488.486C141.035 503.209 157.832 512 175.752 512H336.248C354.178 512 370.979 503.203 381.193 488.466C391.406 473.729 393.746 454.908 387.452 438.12L320.807 260.361V141.325H191.01Z" fill="#EDEEF0"/>
<path d="M387.452 438.119L320.807 260.36V141.325H256.125V512H336.249C354.179 512 370.98 503.203 381.194 488.466C391.406 473.729 393.746 454.908 387.452 438.119Z" fill="#DCDEE2"/>
<path d="M327.494 347.06H184.404L147.174 446.632C143.62 456.136 144.899 466.37 150.683 474.706C156.466 483.044 165.603 487.825 175.751 487.825H336.247C346.399 487.825 355.539 483.039 361.323 474.694C367.106 466.349 368.379 456.111 364.815 446.604L327.494 347.06Z" fill="#9ED04D"/>
<path d="M364.816 446.605L327.495 347.059H256.126V487.824H336.25C346.402 487.824 355.542 483.038 361.326 474.693C367.108 466.351 368.38 456.112 364.816 446.605Z" fill="#86B143"/>
<path d="M320.8 161.93H191.44V188.2H320.8V161.93Z" fill="#D8D9DD"/>
<path d="M320.8 161.93H256.12V188.2H320.8V161.93Z" fill="#B7B9C0"/>
<path d="M340.69 129.24H171.12V169.53H340.69V129.24Z" fill="#EDEEF0"/>
<path d="M340.69 129.24H256.12V169.53H340.69V129.24Z" fill="#DCDEE2"/>
<path d="M231.85 414.953C242.787 414.953 251.653 406.087 251.653 395.15C251.653 384.213 242.787 375.347 231.85 375.347C220.913 375.347 212.047 384.213 212.047 395.15C212.047 406.087 220.913 414.953 231.85 414.953Z" fill="white"/>
<path d="M196.71 467.95C204.442 467.95 210.71 461.682 210.71 453.95C210.71 446.218 204.442 439.95 196.71 439.95C188.978 439.95 182.71 446.218 182.71 453.95C182.71 461.682 188.978 467.95 196.71 467.95Z" fill="white"/>
<path d="M224.71 326.87C232.442 326.87 238.71 320.602 238.71 312.87C238.71 305.138 232.442 298.87 224.71 298.87C216.978 298.87 210.71 305.138 210.71 312.87C210.71 320.602 216.978 326.87 224.71 326.87Z" fill="#9ED04D"/>
<path d="M288.47 306.82C296.202 306.82 302.47 300.552 302.47 292.82C302.47 285.088 296.202 278.82 288.47 278.82C280.738 278.82 274.47 285.088 274.47 292.82C274.47 300.552 280.738 306.82 288.47 306.82Z" fill="#86B143"/>
<path d="M256.12 240.58C263.852 240.58 270.12 234.312 270.12 226.58C270.12 218.848 263.852 212.58 256.12 212.58C248.388 212.58 242.12 218.848 242.12 226.58C242.12 234.312 248.388 240.58 256.12 240.58Z" fill="#9ED04D"/>
<path d="M231.85 104.89C239.582 104.89 245.85 98.622 245.85 90.89C245.85 83.158 239.582 76.89 231.85 76.89C224.118 76.89 217.85 83.158 217.85 90.89C217.85 98.622 224.118 104.89 231.85 104.89Z" fill="#9ED04D"/>
<path d="M281.34 67.86C289.072 67.86 295.34 61.592 295.34 53.86C295.34 46.128 289.072 39.86 281.34 39.86C273.608 39.86 267.34 46.128 267.34 53.86C267.34 61.592 273.608 67.86 281.34 67.86Z" fill="#86B143"/>
<path d="M236.99 28C244.722 28 250.99 21.732 250.99 14C250.99 6.26801 244.722 0 236.99 0C229.258 0 222.99 6.26801 222.99 14C222.99 21.732 229.258 28 236.99 28Z" fill="#9ED04D"/>
<path d="M312.32 445.45C320.052 445.45 326.32 439.182 326.32 431.45C326.32 423.718 320.052 417.45 312.32 417.45C304.588 417.45 298.32 423.718 298.32 431.45C298.32 439.182 304.588 445.45 312.32 445.45Z" fill="white"/>
<path d="M312.32 445.45C320.052 445.45 326.32 439.182 326.32 431.45C326.32 423.718 320.052 417.45 312.32 417.45C304.588 417.45 298.32 423.718 298.32 431.45C298.32 439.182 304.588 445.45 312.32 445.45Z" fill="#EDEEF0"/>
<path d="M270.128 226.578C270.128 234.311 263.858 240.581 256.125 240.581V212.575C263.86 212.575 270.128 218.843 270.128 226.578Z" fill="#86B143"/>
<!-- <line x1="515.553" y1="5.51814" x2="10.55283" y2="515.518" stroke="black" stroke-width="15"/> -->

</g>
<defs>
<clipPath id="clip0_1_40">
<rect width="512" height="512" fill="white"/>
</clipPath>
</defs>
</svg>
