<svg viewBox="0 0 512 512" fill="none" xmlns="http://www.w3.org/2000/svg">
<g clip-path="url(#clip0_2_2)">
<path d="M370.477 139.876C370.91 145.08 371.132 150.359 371.132 155.711C371.132 194.475 359.414 229.64 340.401 256H291.956V139.876H370.477Z" fill="#685642"/>
<path d="M371.132 356.289C371.132 361.641 370.91 366.92 370.477 372.124H291.956V256H340.401C359.414 282.36 371.132 317.524 371.132 356.289Z" fill="#A58763"/>
<path d="M370.477 139.876H291.956V18.474L292.927 15.687C334.659 33.813 365.664 81.825 370.477 139.876Z" fill="#A58763"/>
<path d="M291.957 372.124H370.478C365.664 430.175 334.659 478.187 292.929 496.313L291.958 493.526V372.124H291.957Z" fill="#685642"/>
<path d="M292.928 15.687L291.957 18.474V139.876H218.06V18.474L215.094 17.513C227.804 11.316 241.591 7.91699 256.001 7.91699C268.922 7.91799 281.337 10.652 292.928 15.687Z" fill="#685642"/>
<path d="M291.957 493.526L292.928 496.313C281.337 501.349 268.922 504.083 256.001 504.083C241.591 504.083 227.804 500.684 215.094 494.487L218.06 493.526V372.124H291.957V493.526Z" fill="#A58763"/>
<path d="M291.957 256H218.06V372.124H291.957V256Z" fill="#685642"/>
<path d="M291.957 139.876H218.06V256H291.957V139.876Z" fill="#A58763"/>
<path d="M218.06 372.124V493.526L215.094 494.487C175.38 475.105 146.18 428.318 141.524 372.124H218.06Z" fill="#685642"/>
<path d="M218.06 256V372.124H141.524C141.091 366.92 140.869 361.641 140.869 356.289C140.869 317.525 152.576 282.36 171.6 256H218.06V256Z" fill="#A58763"/>
<path d="M218.06 139.876V256H171.6C152.577 229.64 140.869 194.476 140.869 155.711C140.869 150.359 141.091 145.08 141.524 139.876H218.06Z" fill="#685642"/>
<path d="M218.06 18.474V139.876H141.524C146.18 83.683 175.379 36.895 215.094 17.513L218.06 18.474Z" fill="#A58763"/>
<path d="M379.049 155.711C379.049 150.207 378.82 144.658 378.367 139.221C373.4 79.32 341.101 27.978 296.082 8.425C283.214 2.834 269.728 0 256.001 0C240.705 0 225.775 3.497 211.621 10.398C190.59 20.662 172.184 38.084 158.395 60.78C144.561 83.55 135.999 110.675 133.633 139.221C133.18 144.66 132.951 150.208 132.951 155.713C132.951 192.523 143.218 227.895 161.964 256.002C143.218 284.108 132.951 319.48 132.951 356.291C132.951 361.795 133.18 367.344 133.633 372.779C135.999 401.326 144.561 428.452 158.395 451.222C172.184 473.918 190.59 491.34 211.624 501.606C225.775 508.503 240.705 512 256.001 512C269.729 512 283.214 509.166 296.083 503.575C341.103 484.022 373.401 432.68 378.368 372.781C378.821 367.342 379.05 361.794 379.05 356.289C379.05 319.495 368.78 284.119 350.036 256C368.78 227.881 379.049 192.506 379.049 155.711ZM336.268 248.082H299.874V147.794H363.041C363.154 150.431 363.214 153.076 363.214 155.712C363.214 189.789 353.667 222.414 336.268 248.082ZM225.977 248.082V147.794H284.039V248.083H225.977V248.082ZM284.039 263.918V364.207H225.977V263.918H284.039ZM361.653 131.959H299.874V28.107C332.291 47.134 355.617 86.169 361.653 131.959ZM284.039 20.718V131.959H225.977V21.421C235.693 17.716 245.759 15.835 256 15.835C265.531 15.835 274.933 17.492 284.039 20.718ZM171.928 69.002C182.227 52.051 195.32 38.498 210.142 29.308V131.959H150.345C153.363 109.021 160.746 87.405 171.928 69.002ZM148.787 155.711C148.787 153.076 148.847 150.431 148.96 147.793H210.142V248.082H175.731C158.333 222.429 148.787 189.803 148.787 155.711ZM175.732 263.918H210.143V364.207H148.96C148.847 361.57 148.787 358.925 148.787 356.289C148.787 322.197 158.333 289.571 175.732 263.918ZM171.928 442.998C160.747 424.596 153.363 402.98 150.345 380.041H210.142V482.691C195.319 473.5 182.226 459.948 171.928 442.998ZM225.977 490.579V380.041H284.039V491.282C274.933 494.507 265.531 496.164 256 496.164C245.759 496.165 235.693 494.285 225.977 490.579ZM299.874 483.892V380.042H361.653C355.617 425.83 332.291 464.865 299.874 483.892ZM363.214 356.289C363.214 358.924 363.154 361.569 363.041 364.207H299.874V263.918H336.268C353.667 289.586 363.214 322.211 363.214 356.289Z" fill="black"/>
<!-- <line x1="515.553" y1="3.51814" x2="8.55283" y2="515.518" stroke="black" stroke-width="15"/> -->
</g>
<defs>
<clipPath id="clip0_2_2">
<rect width="512" height="512" fill="white"/>
</clipPath>
</defs>
</svg>
